<svg xmlns="http://www.w3.org/2000/svg" width="128" height="128" viewBox="0 0 128 128"><defs><style>.a{fill:#eee;}.b{fill:#999;}</style></defs><title>icon</title><rect class="a" width="128" height="128"/><path d="M5.38,73.35c.22,3.37,2.44,5,4.83,4.89A4,4,0,0,0,14.13,75l2.61.94a6.8,6.8,0,0,1-6.36,5c-4.29.27-7.66-2.9-7.94-7.37s2.73-8,6.92-8.28a6.41,6.41,0,0,1,6.85,4.27L13.68,70.8a3.88,3.88,0,0,0-4.15-2.88C7.2,68.07,5.17,69.92,5.38,73.35Z"/><path d="M29.92,71.8c.28,4.5-2.63,8-7,8.32s-7.75-2.87-8-7.37a7.55,7.55,0,1,1,15.07-1ZM27,72c-.22-3.4-2.48-5.11-4.93-4.95s-4.48,2.12-4.26,5.53,2.47,5.13,4.93,5S27.19,75.42,27,72Z"/><path d="M30.38,79.18l-.93-14.73,2.76-.18.12,2a5.1,5.1,0,0,1,4.32-2.67,4.63,4.63,0,0,1,4.59,2.51A5.32,5.32,0,0,1,46,63c2.57-.16,5.19,1.43,5.43,5.29L52,77.81,49.19,78l-.58-9.25c-.13-1.92-1.17-3.31-3.34-3.17a3.45,3.45,0,0,0-3.17,3.92l.56,8.92-2.87.18-.59-9.25c-.12-1.9-1.13-3.31-3.34-3.17a3.42,3.42,0,0,0-3.19,4L33.23,79Z"/><path d="M53.32,83.58,52,63l2.79-.17.15,2.3a5.41,5.41,0,0,1,4.76-3c4.41-.28,7,3,7.26,7.26s-2,7.94-6.37,8.21a5.49,5.49,0,0,1-4.93-2.08l.49,7.81Zm6-18.81c-2.63.17-4.24,2.49-4,5.43s2.07,5.09,4.71,4.93,4.21-2.45,4-5.48S62.06,64.6,59.36,64.77Z"/><path d="M70.46,68.19l4-.83c.88-.18,1.09-.65,1.06-1.17-.09-1.44-1.11-2.58-3.35-2.44A3.14,3.14,0,0,0,69,66.94l-2.8-.47c.13-2.84,2.55-5,5.73-5.16,4.42-.28,6.29,2.12,6.47,5l.47,7.38a14.4,14.4,0,0,0,.33,2.41l-2.81.18a9.64,9.64,0,0,1-.28-2,5.4,5.4,0,0,1-4.6,2.75c-3,.19-5.06-1.77-5.21-4.1C66.11,70.31,67.94,68.72,70.46,68.19ZM75.71,70l0-.68-4.46,1a2.21,2.21,0,0,0-2,2.34,2.24,2.24,0,0,0,2.53,2C74.09,74.45,75.91,73.2,75.71,70Z"/><path d="M82.66,75.88l-2.87.18-.93-14.73,2.81-.18.14,2.12a5,5,0,0,1,4.37-2.83c3.52-.23,5.43,2.21,5.63,5.48l.59,9.35-2.87.18L89,66.6c-.13-2.06-1.09-3.66-3.67-3.49-2.26.14-3.32,2-3.17,4.26Z"/><path d="M93.32,52.73a2.07,2.07,0,1,1-1.92,2.21A2.06,2.06,0,0,1,93.32,52.73Zm0,22.48-.93-14.74,2.85-.18L96.17,75Z"/><path d="M110.78,66.7c.28,4.5-2.63,8-7,8.31s-7.74-2.86-8-7.36,2.64-8,7-8.29S110.49,62.22,110.78,66.7Zm-3,.18c-.21-3.4-2.47-5.1-4.92-4.95s-4.48,2.13-4.26,5.53,2.47,5.13,4.92,5S108.05,70.31,107.83,66.88Z"/><path d="M114.12,73.9l-2.88.18-.93-14.74,2.82-.17.13,2.11a5.06,5.06,0,0,1,4.37-2.83c3.53-.22,5.43,2.21,5.64,5.49l.59,9.34-2.88.18-.56-8.85c-.13-2-1.09-3.65-3.66-3.49-2.27.14-3.32,2-3.18,4.26Z"/><path class="b" d="M97.79,93.31l-1.4-22.17L99.27,71l1.4,22.18Z"/><path class="b" d="M101.89,70.57A2.07,2.07,0,1,1,100,72.79,2.07,2.07,0,0,1,101.89,70.57Zm0,22.48L101,78.32l2.85-.18.93,14.73Z"/><path class="b" d="M108.89,77.82l3.19-.2.16,2.6-3.18.2.48,7.66c.09,1.35.68,2,2.18,1.89a5.4,5.4,0,0,0,1.13-.19l.15,2.45a6.15,6.15,0,0,1-1.94.4,3.83,3.83,0,0,1-4.37-3.94l-.51-8.09-2.82.18-.16-2.6.79-.05a2.07,2.07,0,0,0,2.13-2.41L106,73.33l2.63-.17Z"/><path class="b" d="M125.58,87.35a6.69,6.69,0,0,1-6.32,5.07c-4,.25-7.6-2.41-7.91-7.41-.3-4.62,2.84-8,6.55-8.22,4.53-.29,7.27,2.68,7.56,7.27a5.52,5.52,0,0,1,0,.92l-11.09.7a4.4,4.4,0,0,0,4.73,4.2A4,4,0,0,0,123,86.64Zm-3.21-4.51a3.72,3.72,0,0,0-4.28-3.51,4,4,0,0,0-3.77,4Z"/><path d="M51,54.43l-8.4.53-1.28,4.51-5.09.32L43,37.56l5.61-.36,9.45,21.21-5.26.33Zm-7.08-4,5.27-.33-3.08-7.34Z"/><path d="M53.91,47.82A11.09,11.09,0,0,1,64.4,35.74c6.53-.41,9.67,3.61,10.57,6.69L70.5,44.15c-.43-1.48-2-3.93-5.8-3.69-2.91.18-6.06,2.47-5.77,7a6.17,6.17,0,0,0,6.66,6A5.57,5.57,0,0,0,71,49.1l4.71,1c-.52,3-3.11,7.82-9.85,8.25A11,11,0,0,1,53.91,47.82Z"/><path d="M75.82,57.29,74.45,35.57l14-.88.29,4.59-9.15.58.29,4.59,8-.5.28,4.41-8,.5L80.69,57Z"/></svg>